<svg xmlns="http://www.w3.org/2000/svg" viewBox="0 0 520 180" width="520" height="180">
  <defs>
    <style>@import url('https://fonts.googleapis.com/css2?family=Playfair+Display:wght@400;600;700&amp;family=Cormorant+Garamond:wght@300;400;500;600&amp;display=swap');</style>
  </defs>
  <rect width="520" height="180" fill="#1a1a1a"/>
  <rect x="10" y="10" width="500" height="160" rx="3" fill="none" stroke="#c4a747" stroke-width="1.2" stroke-opacity="0.5"/>
  <g stroke="#c4a747" stroke-width="0.6" fill="none" stroke-opacity="0.6">
    <path d="M16,16 L28,16 M16,16 L16,28"/>
    <path d="M504,16 L492,16 M504,16 L504,28"/>
    <path d="M16,164 L28,164 M16,164 L16,152"/>
    <path d="M504,164 L492,164 M504,164 L504,152"/>
  </g>
  <g fill="#c4a747" fill-opacity="0.6">
    <circle cx="16" cy="16" r="1.5"/>
    <circle cx="504" cy="16" r="1.5"/>
    <circle cx="16" cy="164" r="1.5"/>
    <circle cx="504" cy="164" r="1.5"/>
  </g>
  <g transform="translate(52, 30)">
    <path d="M22,80 L24,24 C25,19 31,14 42,12 L62,12 C73,14 79,19 80,24 L82,80" fill="none" stroke="#c4a747" stroke-width="2.2" stroke-linecap="round" stroke-linejoin="round"/>
    <path d="M6,82 C6,75 15,69 24,69 L80,69 C89,69 98,75 98,82 C98,89 89,94 80,94 L24,94 C15,94 6,89 6,82Z" fill="none" stroke="#c4a747" stroke-width="2.2"/>
    <rect x="24" y="58" width="56" height="11" rx="2" fill="#c4a747" fill-opacity="0.1" stroke="#c4a747" stroke-width="1"/>
    <rect x="46" y="59.5" width="12" height="8" rx="1.5" fill="none" stroke="#c4a747" stroke-width="0.8"/>
    <circle cx="52" cy="63.5" r="2" fill="#c4a747"/>
    <line x1="40" y1="14" x2="39" y2="58" stroke="#c4a747" stroke-width="0.3" stroke-opacity="0.2"/>
    <line x1="52" y1="12" x2="52" y2="58" stroke="#c4a747" stroke-width="0.3" stroke-opacity="0.2"/>
    <line x1="64" y1="14" x2="65" y2="58" stroke="#c4a747" stroke-width="0.3" stroke-opacity="0.2"/>
  </g>
  <text x="168" y="74" font-family="'Playfair Display', Georgia, serif" font-weight="700" font-size="38" fill="#f5f0e8" letter-spacing="3">HATTEMANDEN</text>
  <line x1="168" y1="85" x2="498" y2="85" stroke="#c4a747" stroke-width="0.6" stroke-opacity="0.4"/>
  <text x="168" y="107" font-family="'Cormorant Garamond', serif" font-weight="400" font-size="16" fill="#c4a747">.dk</text>
  <circle cx="196" cy="102" r="1.5" fill="#c4a747" fill-opacity="0.5"/>
  <text x="207" y="107" font-family="'Cormorant Garamond', serif" font-weight="300" font-size="12" fill="#c4a747" fill-opacity="0.7" letter-spacing="3">DANSK HATTETRADITION</text>
  <line x1="168" y1="126" x2="218" y2="126" stroke="#c4a747" stroke-width="0.4" stroke-opacity="0.3"/>
  <text x="226" y="130" font-family="'Cormorant Garamond', serif" font-weight="400" font-size="10" fill="#c4a747" fill-opacity="0.5" letter-spacing="2">KOLDING · SIDEN 2000</text>
  <line x1="390" y1="126" x2="498" y2="126" stroke="#c4a747" stroke-width="0.4" stroke-opacity="0.3"/>
</svg>
