<svg xmlns="http://www.w3.org/2000/svg" viewBox="0 0 120 120" width="120" height="120">
  <rect x="5" y="5" width="110" height="110" rx="2" fill="none" stroke="#5a4510" stroke-width="1.5"/>
  <g fill="#c4a747">
    <circle cx="10" cy="10" r="1.2"/>
    <circle cx="110" cy="10" r="1.2"/>
    <circle cx="10" cy="110" r="1.2"/>
    <circle cx="110" cy="110" r="1.2"/>
  </g>
  <!-- Bold hat silhouette -->
  <g transform="translate(22, 12)" fill="none" stroke="#5a4510">
    <path d="M17,62 L19,18 C20,14 24,10 33,9 L45,9 C54,10 58,14 59,18 L61,62" stroke-width="2.2" stroke-linecap="round"/>
    <path d="M5,64 C5,58 13,53 19,53 L59,53 C65,53 73,58 73,64 C73,70 65,75 59,75 L19,75 C13,75 5,70 5,64Z" stroke-width="2.2"/>
    <rect x="19" y="44" width="40" height="9" rx="1.5" fill="#c4a747" fill-opacity="0.25" stroke-width="1"/>
    <rect x="35" y="45.5" width="9" height="6" rx="1" stroke-width="0.7"/>
    <circle cx="39.5" cy="48.5" r="1.5" fill="#5a4510"/>
  </g>
  <text x="60" y="98" text-anchor="middle" font-family="'Playfair Display', Georgia, serif" font-weight="700" font-size="9" fill="#3d2e0a" letter-spacing="1.5">HATTEMANDEN</text>
  <text x="60" y="108" text-anchor="middle" font-family="'Cormorant Garamond', serif" font-weight="400" font-size="7" fill="#88754a">.dk</text>
</svg>
