<svg xmlns="http://www.w3.org/2000/svg" viewBox="0 0 120 120" width="120" height="120">
  <g transform="translate(60, 60)">
    <circle cx="0" cy="0" r="52" fill="none" stroke="#5a4510" stroke-width="2.5"/>
    <circle cx="0" cy="0" r="47" fill="none" stroke="#c4a747" stroke-width="0.5"/>
    <circle cx="0" cy="0" r="40" fill="none" stroke="#5a4510" stroke-width="0.8"/>
    <!-- Hat — bold silhouette for small size -->
    <g transform="translate(-22, -24)" fill="none" stroke="#5a4510">
      <path d="M11,36 L13,10 C14,7 17,4 21,3 L23,3 C27,4 30,7 31,10 L33,36" stroke-width="2.2" stroke-linecap="round"/>
      <path d="M2,38 C2,34 7,31 13,31 L31,31 C37,31 42,34 42,38 C42,42 37,45 31,45 L13,45 C7,45 2,42 2,38Z" stroke-width="2.2"/>
      <rect x="13" y="25" width="18" height="6" rx="1" fill="#c4a747" fill-opacity="0.2" stroke-width="0.8"/>
    </g>
  </g>
</svg>
