<svg xmlns="http://www.w3.org/2000/svg" viewBox="0 0 520 200" width="520" height="200">
  <defs>
    <style>
      @import url('https://fonts.googleapis.com/css2?family=Playfair+Display:ital,wght@0,400;0,600;0,700;1,400&amp;family=Cormorant+Garamond:wght@300;400;500;600&amp;display=swap');
    </style>
  </defs>
  <rect width="520" height="200" fill="#1a1a1a"/>
  <!-- Top hat -->
  <g transform="translate(50, 20)" fill="none" stroke="#c4a747">
    <path d="M22,80 L24,20 C24,16 28,12 36,10 L68,10 C76,12 80,16 80,20 L82,80" stroke-width="1.8"/>
    <path d="M24,20 C30,17 36,16 52,16 C68,16 74,17 80,20" stroke-width="0.8" stroke-opacity="0.6"/>
    <rect x="24" y="62" width="58" height="12" rx="1" stroke-width="1.2" fill="#c4a747" fill-opacity="0.08"/>
    <line x1="24" y1="62" x2="82" y2="62" stroke-width="0.8" stroke-opacity="0.6"/>
    <line x1="24" y1="74" x2="82" y2="74" stroke-width="0.8" stroke-opacity="0.6"/>
    <rect x="46" y="63.5" width="12" height="9" rx="1.5" stroke-width="1"/>
    <circle cx="52" cy="68" r="2" fill="#c4a747"/>
    <path d="M2,82 C2,76 12,70 24,70 L82,70 C92,70 102,76 102,82 C102,88 92,94 82,94 L24,94 C12,94 2,88 2,82Z" stroke-width="2"/>
    <path d="M10,88 C14,91 20,92 52,92 C80,92 90,91 94,88" stroke-width="0.5" stroke-opacity="0.3"/>
    <g stroke-width="0.25" stroke-opacity="0.2">
      <line x1="32" y1="16" x2="33" y2="62"/>
      <line x1="42" y1="15" x2="42" y2="62"/>
      <line x1="52" y1="15" x2="52" y2="62"/>
      <line x1="62" y1="15" x2="62" y2="62"/>
      <line x1="72" y1="16" x2="71" y2="62"/>
    </g>
  </g>
  <!-- Ribbon banner -->
  <g transform="translate(155, 30)">
    <path d="M0,25 L15,20 L15,50 L0,45 L8,35 Z" fill="#c4a747" fill-opacity="0.1" stroke="#c4a747" stroke-width="1" stroke-opacity="0.6"/>
    <rect x="15" y="15" width="310" height="40" rx="0" fill="#1a1a1a" stroke="#c4a747" stroke-width="1.5" stroke-opacity="0.7"/>
    <path d="M325,25 L340,20 L340,50 L325,45 L333,35 Z" fill="#c4a747" fill-opacity="0.1" stroke="#c4a747" stroke-width="1" stroke-opacity="0.6"/>
    <text x="170" y="42" text-anchor="middle" font-family="'Playfair Display', Georgia, serif" font-weight="700" font-size="26" fill="#f5f0e8" letter-spacing="4">HATTEMANDEN</text>
    <line x1="20" y1="18" x2="320" y2="18" stroke="#c4a747" stroke-width="0.5" stroke-opacity="0.3"/>
    <line x1="20" y1="52" x2="320" y2="52" stroke="#c4a747" stroke-width="0.5" stroke-opacity="0.3"/>
  </g>
  <text x="325" y="95" text-anchor="middle" font-family="'Cormorant Garamond', serif" font-weight="400" font-size="18" fill="#c4a747">.dk</text>
  <g transform="translate(325, 108)" stroke="#c4a747" fill="none" stroke-width="0.5" stroke-opacity="0.4">
    <path d="M-80,0 C-60,-4 -40,4 -20,0"/>
    <circle cx="0" cy="0" r="2" fill="#c4a747" fill-opacity="0.5"/>
    <path d="M20,0 C40,4 60,-4 80,0"/>
  </g>
  <text x="325" y="132" text-anchor="middle" font-family="'Cormorant Garamond', serif" font-weight="400" font-style="italic" font-size="12" fill="#c4a747" fill-opacity="0.8">Grundlagt af Pepino</text>
  <g fill="#c4a747" fill-opacity="0.4">
    <circle cx="260" cy="144" r="1"/>
    <circle cx="325" cy="144" r="1.5" fill="none" stroke="#c4a747" stroke-width="0.5"/>
    <circle cx="390" cy="144" r="1"/>
  </g>
  <text x="325" y="160" text-anchor="middle" font-family="'Cormorant Garamond', serif" font-weight="300" font-size="10" fill="#c4a747" fill-opacity="0.6" letter-spacing="3">KOLDING · ANNO 2000</text>
  <line x1="180" y1="175" x2="470" y2="175" stroke="#c4a747" stroke-width="0.3" stroke-opacity="0.3"/>
</svg>