<svg xmlns="http://www.w3.org/2000/svg" viewBox="0 0 120 120" width="120" height="120">
  <defs>
    <style>
      @import url('https://fonts.googleapis.com/css2?family=Playfair+Display:wght@400;600;700&amp;display=swap');
    </style>
  </defs>
  <!-- Ornamental border -->
  <rect x="5" y="5" width="110" height="110" rx="2" fill="none" stroke="#5a4510" stroke-width="1.5"/>
  <rect x="8" y="8" width="104" height="104" rx="1" fill="none" stroke="#c4a747" stroke-width="0.3"/>
  <!-- Corner curves -->
  <g stroke="#8b6914" stroke-width="0.5" fill="none">
    <path d="M12,12 C15,12 15,15 12,15"/>
    <path d="M108,12 C105,12 105,15 108,15"/>
    <path d="M12,108 C15,108 15,105 12,105"/>
    <path d="M108,108 C105,108 105,105 108,105"/>
  </g>
  <!-- Detailed hat -->
  <g transform="translate(25, 10)" fill="none" stroke="#5a4510">
    <path d="M14,60 L15,16 C15,13 18,10 23,8 L47,8 C52,10 55,13 55,16 L56,60" stroke-width="1.5"/>
    <rect x="15" y="48" width="40" height="9" rx="1" stroke-width="0.8" fill="#8b4513" fill-opacity="0.15"/>
    <rect x="31" y="49" width="8" height="7" rx="1" stroke-width="0.6"/>
    <circle cx="35" cy="52.5" r="1.5" fill="#5a4510"/>
    <path d="M2,62 C2,57 10,53 15,53 L55,53 C60,53 68,57 68,62 C68,67 60,71 55,71 L15,71 C10,71 2,67 2,62Z" stroke-width="1.5"/>
  </g>
  <!-- Mini ribbon -->
  <g transform="translate(60, 82)">
    <path d="M-38,2 L-30,0 L-30,12 L-38,10 L-34,6 Z" fill="#c4a747" fill-opacity="0.15" stroke="#5a4510" stroke-width="0.5"/>
    <rect x="-30" y="-2" width="60" height="14" fill="#f5f0e8" stroke="#5a4510" stroke-width="0.8"/>
    <path d="M30,2 L38,0 L38,12 L30,10 L34,6 Z" fill="#c4a747" fill-opacity="0.15" stroke="#5a4510" stroke-width="0.5"/>
    <text x="0" y="9" text-anchor="middle" font-family="'Playfair Display', Georgia, serif" font-weight="700" font-size="6.5" fill="#3d2e0a" letter-spacing="1">HATTEMANDEN</text>
  </g>
  <!-- .dk -->
  <text x="60" y="107" text-anchor="middle" font-family="'Cormorant Garamond', serif" font-weight="400" font-size="7" fill="#88754a">.dk</text>
</svg>