<svg xmlns="http://www.w3.org/2000/svg" viewBox="0 0 520 180" width="520" height="180">
  <defs>
    <style>
      @import url('https://fonts.googleapis.com/css2?family=Playfair+Display:wght@400;600;700&amp;family=Cormorant+Garamond:wght@300;400;500;600&amp;display=swap');
    </style>
  </defs>
  <rect width="520" height="180" fill="#1a1a1a"/>
  <!-- Circular seal -->
  <g transform="translate(90, 90)">
    <circle cx="0" cy="0" r="72" fill="none" stroke="#c4a747" stroke-width="2" stroke-opacity="0.7"/>
    <circle cx="0" cy="0" r="68" fill="none" stroke="#c4a747" stroke-width="0.5" stroke-opacity="0.3"/>
    <circle cx="0" cy="0" r="58" fill="none" stroke="#c4a747" stroke-width="0.8" stroke-opacity="0.5"/>
    <g fill="#c4a747" fill-opacity="0.5">
      <circle cx="0" cy="-63" r="1"/>
      <circle cx="31.5" cy="-54.5" r="1"/>
      <circle cx="54.5" cy="-31.5" r="1"/>
      <circle cx="63" cy="0" r="1"/>
      <circle cx="54.5" cy="31.5" r="1"/>
      <circle cx="31.5" cy="54.5" r="1"/>
      <circle cx="0" cy="63" r="1"/>
      <circle cx="-31.5" cy="54.5" r="1"/>
      <circle cx="-54.5" cy="31.5" r="1"/>
      <circle cx="-63" cy="0" r="1"/>
      <circle cx="-54.5" cy="-31.5" r="1"/>
      <circle cx="-31.5" cy="-54.5" r="1"/>
    </g>
    <path id="topArcD" d="M-50,-38 A63,63 0 0,1 50,-38" fill="none"/>
    <text font-family="'Cormorant Garamond', serif" font-weight="600" font-size="10" fill="#c4a747" letter-spacing="4">
      <textPath href="#topArcD" startOffset="50%" text-anchor="middle">HATTEMANDEN</textPath>
    </text>
    <path id="bottomArcD" d="M-48,42 A63,63 0 0,0 48,42" fill="none"/>
    <text font-family="'Cormorant Garamond', serif" font-weight="400" font-size="8" fill="#c4a747" fill-opacity="0.7" letter-spacing="2">
      <textPath href="#bottomArcD" startOffset="50%" text-anchor="middle">KOLDING · SIDEN 2000</textPath>
    </text>
    <g fill="#c4a747" fill-opacity="0.6">
      <polygon points="-55,-2 -53,0 -55,2 -57,0"/>
      <polygon points="55,-2 57,0 55,2 53,0"/>
    </g>
    <g transform="translate(-28, -30)" fill="none" stroke="#c4a747">
      <path d="M14,45 L14,15 C14,12 17,9 22,7 L36,7 C41,9 44,12 44,15 L44,45" stroke-width="1.5"/>
      <path d="M3,45 C3,41 8,38 14,38 L44,38 C50,38 55,41 55,45 C55,49 50,52 44,52 L14,52 C8,52 3,49 3,45Z" stroke-width="1.5"/>
      <rect x="14" y="30" width="30" height="8" rx="1" stroke-width="0.8" fill="#c4a747" fill-opacity="0.1"/>
      <rect x="26" y="31" width="6" height="6" rx="1" stroke-width="0.6"/>
      <circle cx="29" cy="34" r="1" fill="#c4a747"/>
    </g>
  </g>
  <text x="190" y="70" font-family="'Playfair Display', Georgia, serif" font-weight="700" font-size="38" fill="#f5f0e8" letter-spacing="4">Hattemanden</text>
  <text x="190" y="92" font-family="'Cormorant Garamond', serif" font-weight="400" font-size="18" fill="#c4a747">.dk</text>
  <line x1="190" y1="102" x2="490" y2="102" stroke="#c4a747" stroke-width="0.4" stroke-opacity="0.4"/>
  <text x="190" y="122" font-family="'Cormorant Garamond', serif" font-weight="300" font-size="13" fill="#c4a747" fill-opacity="0.8" letter-spacing="2.5">Dansk Hattetradition</text>
  <text x="190" y="142" font-family="'Cormorant Garamond', serif" font-weight="400" font-size="10" fill="#c4a747" fill-opacity="0.5" letter-spacing="1.5">Søndergade · Kolding</text>
</svg>