<svg xmlns="http://www.w3.org/2000/svg" viewBox="0 0 100 100" width="100" height="100">
  <!-- Compact seal for favicon -->
  <g transform="translate(50, 50)">
    <circle cx="0" cy="0" r="45" fill="none" stroke="#5a4510" stroke-width="2"/>
    <circle cx="0" cy="0" r="41" fill="none" stroke="#c4a747" stroke-width="0.4"/>
    <circle cx="0" cy="0" r="35" fill="none" stroke="#5a4510" stroke-width="0.6"/>
    <!-- Central hat -->
    <g transform="translate(-18, -20)" fill="none" stroke="#5a4510">
      <path d="M9,30 L9,10 C9,8 11,5 15,4 L23,4 C27,5 29,8 29,10 L29,30" stroke-width="1.5"/>
      <path d="M2,30 C2,27 6,25 9,25 L29,25 C32,25 36,27 36,30 C36,33 32,35 29,35 L9,35 C6,35 2,33 2,30Z" stroke-width="1.5"/>
      <rect x="9" y="21" width="20" height="4" rx="0.5" fill="#c4a747" fill-opacity="0.25" stroke-width="0.5"/>
    </g>
  </g>
</svg>