<svg xmlns="http://www.w3.org/2000/svg" viewBox="0 0 120 120" width="120" height="120">
  <!-- Frame + seal icon — frame outer, seal inner -->
  <rect x="4" y="4" width="112" height="112" rx="2" fill="none" stroke="#5a4510" stroke-width="1.2"/>
  <g fill="#c4a747">
    <circle cx="9" cy="9" r="1"/>
    <circle cx="111" cy="9" r="1"/>
    <circle cx="9" cy="111" r="1"/>
    <circle cx="111" cy="111" r="1"/>
  </g>
  <g transform="translate(60, 52)">
    <circle cx="0" cy="0" r="38" fill="none" stroke="#5a4510" stroke-width="1.8"/>
    <circle cx="0" cy="0" r="34" fill="none" stroke="#c4a747" stroke-width="0.4"/>
    <!-- Clean hat -->
    <g transform="translate(-16, -18)" fill="none" stroke="#5a4510">
      <path d="M8,26 L10,7 C11,5 13,3 16,2 L18,2 C21,3 23,5 24,7 L26,26" stroke-width="1.8" stroke-linecap="round"/>
      <path d="M1,28 C1,25 5,23 10,23 L24,23 C29,23 33,25 33,28 C33,31 29,33 24,33 L10,33 C5,33 1,31 1,28Z" stroke-width="1.8"/>
      <rect x="10" y="19" width="14" height="4" rx="0.8" fill="#c4a747" fill-opacity="0.2" stroke-width="0.6"/>
    </g>
  </g>
  <text x="60" y="102" text-anchor="middle" font-family="'Playfair Display', Georgia, serif" font-weight="700" font-size="8" fill="#3d2e0a" letter-spacing="1.5">HATTEMANDEN</text>
  <text x="60" y="111" text-anchor="middle" font-family="'Cormorant Garamond', serif" font-weight="400" font-size="6.5" fill="#88754a">.dk</text>
</svg>
