<svg xmlns="http://www.w3.org/2000/svg" viewBox="0 0 520 180" width="520" height="180">
  <defs>
    <style>
      @import url('https://fonts.googleapis.com/css2?family=Playfair+Display:ital,wght@0,400;0,600;0,700;1,400&amp;family=Cormorant+Garamond:wght@300;400;500;600&amp;display=swap');
    </style>
  </defs>
  <rect width="520" height="180" fill="#1a1a1a"/>
  <!-- Ornamental outer frame -->
  <rect x="8" y="8" width="504" height="164" rx="3" fill="none" stroke="#c4a747" stroke-width="1.5" stroke-opacity="0.6"/>
  <rect x="12" y="12" width="496" height="156" rx="2" fill="none" stroke="#c4a747" stroke-width="0.5" stroke-opacity="0.3"/>
  <!-- Corner ornaments -->
  <g stroke="#c4a747" stroke-width="0.8" fill="none" stroke-opacity="0.7">
    <path d="M18,18 L30,18 M18,18 L18,30"/>
    <path d="M502,18 L490,18 M502,18 L502,30"/>
    <path d="M18,162 L30,162 M18,162 L18,150"/>
    <path d="M502,162 L490,162 M502,162 L502,150"/>
    <circle cx="18" cy="18" r="1.5" fill="#c4a747"/>
    <circle cx="502" cy="18" r="1.5" fill="#c4a747"/>
    <circle cx="18" cy="162" r="1.5" fill="#c4a747"/>
    <circle cx="502" cy="162" r="1.5" fill="#c4a747"/>
  </g>
  <!-- Top hat illustration -->
  <g transform="translate(60, 42)" fill="none" stroke="#c4a747">
    <path d="M20,70 L20,25 C20,22 22,18 30,16 L65,16 C73,18 75,22 75,25 L75,70" stroke-width="1.8"/>
    <path d="M5,70 C5,65 12,62 20,62 L75,62 C83,62 90,65 90,70 C90,75 83,78 75,78 L20,78 C12,78 5,75 5,70Z" stroke-width="1.8"/>
    <rect x="20" y="52" width="55" height="10" rx="1" stroke-width="1" fill="#c4a747" fill-opacity="0.15"/>
    <rect x="42" y="53" width="10" height="8" rx="1" stroke-width="0.8"/>
    <circle cx="47" cy="57" r="1.5" fill="#c4a747"/>
    <line x1="30" y1="18" x2="30" y2="52" stroke-width="0.3" stroke-dasharray="1,3" stroke-opacity="0.4"/>
    <line x1="47" y1="16" x2="47" y2="52" stroke-width="0.3" stroke-dasharray="1,3" stroke-opacity="0.4"/>
    <line x1="65" y1="18" x2="65" y2="52" stroke-width="0.3" stroke-dasharray="1,3" stroke-opacity="0.4"/>
  </g>
  <!-- Main wordmark -->
  <text x="170" y="78" font-family="'Playfair Display', Georgia, serif" font-weight="700" font-size="36" fill="#f5f0e8" letter-spacing="4">HATTEMANDEN</text>
  <line x1="170" y1="88" x2="498" y2="88" stroke="#c4a747" stroke-width="0.5" stroke-opacity="0.5"/>
  <text x="170" y="112" font-family="'Cormorant Garamond', 'Times New Roman', serif" font-weight="400" font-size="18" fill="#c4a747" letter-spacing="1">.dk</text>
  <circle cx="200" cy="107" r="1.5" fill="#c4a747" fill-opacity="0.6"/>
  <text x="212" y="112" font-family="'Cormorant Garamond', 'Times New Roman', serif" font-weight="300" font-size="13" fill="#c4a747" fill-opacity="0.8" letter-spacing="3">DANSK HATTETRADITION</text>
  <g>
    <line x1="170" y1="130" x2="220" y2="130" stroke="#c4a747" stroke-width="0.4" stroke-opacity="0.4"/>
    <text x="228" y="134" font-family="'Cormorant Garamond', 'Times New Roman', serif" font-weight="400" font-size="10" fill="#c4a747" fill-opacity="0.6" letter-spacing="2">KOLDING · SIDEN 2000</text>
    <line x1="395" y1="130" x2="498" y2="130" stroke="#c4a747" stroke-width="0.4" stroke-opacity="0.4"/>
  </g>
</svg>