<svg xmlns="http://www.w3.org/2000/svg" viewBox="0 0 480 160" width="480" height="160">
  <defs>
    <style>@import url('https://fonts.googleapis.com/css2?family=Playfair+Display:wght@400;600;700&amp;family=Cormorant+Garamond:wght@300;400;500;600&amp;display=swap');</style>
  </defs>
  <rect width="480" height="160" fill="#1a1a1a"/>
  <g transform="translate(75, 80)">
    <circle cx="0" cy="0" r="65" fill="none" stroke="#c4a747" stroke-width="2.8" stroke-opacity="0.6"/>
    <circle cx="0" cy="0" r="58" fill="none" stroke="#c4a747" stroke-width="0.6" stroke-opacity="0.3"/>
    <path id="csTopD" d="M-48,-34 A56,56 0 0,1 48,-34" fill="none"/>
    <text font-family="'Playfair Display', Georgia, serif" font-weight="700" font-size="11.5" fill="#c4a747" letter-spacing="3">
      <textPath href="#csTopD" startOffset="50%" text-anchor="middle">HATTEMANDEN</textPath>
    </text>
    <path id="csBotD" d="M-46,38 A56,56 0 0,0 46,38" fill="none"/>
    <text font-family="'Cormorant Garamond', serif" font-weight="500" font-size="8.5" fill="#c4a747" fill-opacity="0.5" letter-spacing="2">
      <textPath href="#csBotD" startOffset="50%" text-anchor="middle">DANSK HATTETRADITION</textPath>
    </text>
    <circle cx="-55" cy="0" r="2" fill="#c4a747" fill-opacity="0.4"/>
    <circle cx="55" cy="0" r="2" fill="#c4a747" fill-opacity="0.4"/>
    <g transform="translate(-25, -26)">
      <rect x="8" y="0" width="34" height="30" rx="2" fill="#c4a747"/>
      <rect x="8" y="23" width="34" height="5" fill="#1a1a1a" fill-opacity="0.2"/>
      <ellipse cx="25" cy="33" rx="25" ry="7" fill="#c4a747"/>
    </g>
  </g>
  <text x="165" y="60" font-family="'Playfair Display', Georgia, serif" font-weight="700" font-size="40" fill="#f5f0e8" letter-spacing="3">Hattemanden</text>
  <line x1="165" y1="72" x2="465" y2="72" stroke="#c4a747" stroke-width="0.4" stroke-opacity="0.3"/>
  <text x="165" y="92" font-family="'Cormorant Garamond', serif" font-weight="400" font-size="16" fill="#c4a747">.dk</text>
  <text x="165" y="118" font-family="'Cormorant Garamond', serif" font-weight="300" font-size="12" fill="#c4a747" fill-opacity="0.5" letter-spacing="2">Søndergade · Kolding · Siden 2000</text>
</svg>
