<svg xmlns="http://www.w3.org/2000/svg" viewBox="0 0 440 100" width="440" height="100">
  <title>Hattemanden.dk Logo - The Gentleman's Mark Dark</title>
  <defs>
    <linearGradient id="darkG4" x1="0%" y1="0%" x2="0%" y2="100%">
      <stop offset="0%" style="stop-color:#2a2a3d;stop-opacity:1" />
      <stop offset="100%" style="stop-color:#1a1a2e;stop-opacity:1" />
    </linearGradient>
  </defs>
  <!-- Shield/Badge emblem -->
  <g id="emblem" transform="translate(6, 4)">
    <path d="M42,4 L78,14 L78,52 Q78,80 42,92 Q6,80 6,52 L6,14 Z" fill="none" stroke="#1a1a2e" stroke-width="2" />
    <path d="M42,10 L72,18 L72,50 Q72,74 42,85 Q12,74 12,50 L12,18 Z" fill="none" stroke="#2a2a3d" stroke-width="0.8" />
    <g transform="translate(18, 20)">
      <ellipse cx="24" cy="44" rx="24" ry="6" fill="url(#darkG4)" />
      <rect x="8" y="8" width="32" height="36" rx="2" fill="url(#darkG4)" />
      <ellipse cx="24" cy="8" rx="16" ry="4" fill="#2a2a3d" />
      <rect x="8" y="33" width="32" height="4.5" fill="#8b6914" />
      <rect x="20" y="32" width="8" height="6.5" rx="1" fill="none" stroke="#c49b26" stroke-width="1" />
    </g>
  </g>
  <!-- Typography -->
  <g id="text" transform="translate(100, 0)">
    <line x1="0" y1="20" x2="80" y2="20" stroke="#1a1a2e" stroke-width="0.6" opacity="0.3" />
    <line x1="240" y1="20" x2="330" y2="20" stroke="#1a1a2e" stroke-width="0.6" opacity="0.3" />
    <text x="165" y="28" font-family="'Inter', 'Helvetica Neue', sans-serif" font-size="10" font-weight="400" fill="#2a2a3d" text-anchor="middle" letter-spacing="6">
      EST. KOLDING
    </text>
    <text x="165" y="58" font-family="'Playfair Display', 'Georgia', serif" font-size="34" font-weight="700" fill="#1a1a2e" text-anchor="middle" letter-spacing="2">
      Hattemanden
    </text>
    <text x="165" y="76" font-family="'Inter', 'Helvetica Neue', sans-serif" font-size="16" font-weight="300" fill="#2a2a3d" text-anchor="middle" letter-spacing="1">
      .dk
    </text>
    <line x1="60" y1="86" x2="270" y2="86" stroke="#1a1a2e" stroke-width="0.6" opacity="0.3" />
  </g>
</svg>