<svg xmlns="http://www.w3.org/2000/svg" viewBox="0 0 240 220" width="240" height="220">
  <title>Hattemanden.dk Logo - The Gentleman's Mark Vertical Gold</title>
  <defs>
    <linearGradient id="goldG4v" x1="0%" y1="0%" x2="0%" y2="100%">
      <stop offset="0%" style="stop-color:#c49b26;stop-opacity:1" />
      <stop offset="100%" style="stop-color:#8b6914;stop-opacity:1" />
    </linearGradient>
  </defs>
  <!-- Shield emblem centered -->
  <g transform="translate(77, 5)">
    <path d="M42,4 L78,14 L78,52 Q78,80 42,92 Q6,80 6,52 L6,14 Z" fill="none" stroke="#8b6914" stroke-width="2" />
    <path d="M42,10 L72,18 L72,50 Q72,74 42,85 Q12,74 12,50 L12,18 Z" fill="none" stroke="#c49b26" stroke-width="0.8" />
    <g transform="translate(18, 20)">
      <ellipse cx="24" cy="44" rx="24" ry="6" fill="url(#goldG4v)" />
      <rect x="8" y="8" width="32" height="36" rx="2" fill="url(#goldG4v)" />
      <ellipse cx="24" cy="8" rx="16" ry="4" fill="#c49b26" />
      <rect x="8" y="33" width="32" height="4.5" fill="#5a4510" />
    </g>
  </g>
  <!-- Text below -->
  <line x1="40" y1="115" x2="200" y2="115" stroke="#c49b26" stroke-width="0.5" />
  <text x="120" y="128" font-family="'Inter', 'Helvetica Neue', sans-serif" font-size="9" font-weight="400" fill="#8b6914" text-anchor="middle" letter-spacing="6">
    EST. KOLDING
  </text>
  <text x="120" y="160" font-family="'Playfair Display', 'Georgia', serif" font-size="32" font-weight="700" fill="#3d2e0a" text-anchor="middle" letter-spacing="2">
    Hattemanden
  </text>
  <text x="120" y="182" font-family="'Inter', 'Helvetica Neue', sans-serif" font-size="16" font-weight="300" fill="#8b6914" text-anchor="middle">
    .dk
  </text>
  <line x1="40" y1="195" x2="200" y2="195" stroke="#c49b26" stroke-width="0.5" />
</svg>